<svg xmlns="http://www.w3.org/2000/svg" xmlns:xlink="http://www.w3.org/1999/xlink" version="1.1" viewBox="0 0 2216 1416" style="background: #ffffff"><g id="v-3"  transform="matrix(1,0,0,1,0,0)"><g id="j_9"    transform="translate(20,1371)"><g id="v-130"><text  id="v-131" font-size="22px" y="0.8em" xml:space="preserve" font-weight="normal" text-anchor="start" fill="#aaaaaa" pointer-events="none" font-family="Open Sans" transform="matrix(1,0,0,1,0,0)"><tspan id="v-132"  dy="0em" x="0">Thursday, November 3, 2022 at 2:05 PM Coordinated Universal Time</tspan></text></g></g><g id="j_8"    transform="translate(20,1325)"><g id="v-126"><text  id="v-127" font-size="36px" y="0.8em" xml:space="preserve" font-weight="normal" text-anchor="start" fill="#000000" pointer-events="none" font-family="Open Sans" transform="matrix(1,0,0,1,0,0)"><tspan id="v-128"  dy="0em" x="0">[System Context] Software System</tspan></text></g></g><g id="j_1"    transform="translate(207,207)" style=""><g  id="v-6" style="opacity: 1;"><rect  x="0" y="160" width="400" height="240" rx="70" id="v-8" stroke="#c7c7c7" stroke-width="2" pointer-events="visiblePainted" fill="#dddddd"></rect><circle  cx="200" cy="88.88888888888889" r="88.88888888888889" id="v-7" stroke="#c7c7c7" stroke-width="2" pointer-events="visiblePainted" fill="#dddddd"></circle><line  x1="80" y1="266.6666666666667" x2="80" y2="400" id="v-14" stroke="#c7c7c7" stroke-width="2"></line><line  x1="320" y1="266.6666666666667" x2="320" y2="400" id="v-15" stroke="#c7c7c7" stroke-width="2"></line><text  id="v-9" font-size="34px" y="0.8em" xml:space="preserve" font-weight="bold" text-anchor="middle" pointer-events="visible" font-family="Open Sans" fill="#000000" transform="matrix(1,0,0,1,200,246.9)"><tspan id="v-16"  dy="0em" x="0">User</tspan></text><text  id="v-10" font-size="19px" y="0.8em" xml:space="preserve" text-anchor="middle" font-family="Open Sans" fill="#000000" transform="matrix(1,0,0,1,200,289.4)"><tspan id="v-17"  dy="0em" x="0">[Person]</tspan></text><text  id="v-11" font-size="24px" y="0.8em" display="none" xml:space="preserve" text-anchor="middle" font-family="Open Sans" fill="#000000" transform="matrix(1,0,0,1,200,313.1)"><tspan id="v-18"  dy="0em" x="0" style="fill-opacity: 0; stroke-opacity: 0;">-</tspan></text><text  id="v-12" font-weight="bold" text-anchor="middle" font-family="Open Sans" fill="#000000" font-size="24" transform="matrix(1,0,0,1,200,371.2)" display="none"></text><image  id="v-13"></image></g></g><g id="j_2"    transform="translate(907,207)" style=""><g  id="v-20" style="opacity: 1;"><rect  x="0" y="160" width="400" height="240" rx="70" id="v-22" stroke="#c7c7c7" stroke-width="2" pointer-events="visiblePainted" fill="#dddddd"></rect><circle  cx="200" cy="88.88888888888889" r="88.88888888888889" id="v-21" stroke="#c7c7c7" stroke-width="2" pointer-events="visiblePainted" fill="#dddddd"></circle><line  x1="80" y1="266.6666666666667" x2="80" y2="400" id="v-28" stroke="#c7c7c7" stroke-width="2"></line><line  x1="320" y1="266.6666666666667" x2="320" y2="400" id="v-29" stroke="#c7c7c7" stroke-width="2"></line><text  id="v-23" font-size="34px" y="0.8em" xml:space="preserve" font-weight="bold" text-anchor="middle" pointer-events="visible" font-family="Open Sans" fill="#000000" transform="matrix(1,0,0,1,200,246.9)"><tspan id="v-30"  dy="0em" x="0">Developer</tspan></text><text  id="v-24" font-size="19px" y="0.8em" xml:space="preserve" text-anchor="middle" font-family="Open Sans" fill="#000000" transform="matrix(1,0,0,1,200,289.4)"><tspan id="v-31"  dy="0em" x="0">[Person]</tspan></text><text  id="v-25" font-size="24px" y="0.8em" display="none" xml:space="preserve" text-anchor="middle" font-family="Open Sans" fill="#000000" transform="matrix(1,0,0,1,200,313.1)"><tspan id="v-32"  dy="0em" x="0" style="fill-opacity: 0; stroke-opacity: 0;">-</tspan></text><text  id="v-26" font-weight="bold" text-anchor="middle" font-family="Open Sans" fill="#000000" font-size="24" transform="matrix(1,0,0,1,200,371.2)" display="none"></text><image  id="v-27"></image></g></g><g id="j_3"    transform="translate(1607,207)" style=""><g  id="v-34" style="opacity: 1;"><rect  x="0" y="160" width="400" height="240" rx="70" id="v-36" stroke="#c7c7c7" stroke-width="2" pointer-events="visiblePainted" fill="#dddddd"></rect><circle  cx="200" cy="88.88888888888889" r="88.88888888888889" id="v-35" stroke="#c7c7c7" stroke-width="2" pointer-events="visiblePainted" fill="#dddddd"></circle><line  x1="80" y1="266.6666666666667" x2="80" y2="400" id="v-42" stroke="#c7c7c7" stroke-width="2"></line><line  x1="320" y1="266.6666666666667" x2="320" y2="400" id="v-43" stroke="#c7c7c7" stroke-width="2"></line><text  id="v-37" font-size="34px" y="0.8em" xml:space="preserve" font-weight="bold" text-anchor="middle" pointer-events="visible" font-family="Open Sans" fill="#000000" transform="matrix(1,0,0,1,200,246.9)"><tspan id="v-44"  dy="0em" x="0">Maintainer</tspan></text><text  id="v-38" font-size="19px" y="0.8em" xml:space="preserve" text-anchor="middle" font-family="Open Sans" fill="#000000" transform="matrix(1,0,0,1,200,289.4)"><tspan id="v-45"  dy="0em" x="0">[Person]</tspan></text><text  id="v-39" font-size="24px" y="0.8em" display="none" xml:space="preserve" text-anchor="middle" font-family="Open Sans" fill="#000000" transform="matrix(1,0,0,1,200,313.1)"><tspan id="v-46"  dy="0em" x="0" style="fill-opacity: 0; stroke-opacity: 0;">-</tspan></text><text  id="v-40" font-weight="bold" text-anchor="middle" font-family="Open Sans" fill="#000000" font-size="24" transform="matrix(1,0,0,1,200,371.2)" display="none"></text><image  id="v-41"></image></g></g><g id="j_4"    transform="translate(882,907)" style="" ><g  id="v-48" style="opacity: 1;"><rect  id="v-49" rx="20" ry="20" stroke="#0f5eaa" stroke-width="2" pointer-events="visiblePainted" fill="#1168bd" width="450" height="300"></rect><text  id="v-50" font-size="34" y="0.8em" xml:space="preserve" font-weight="bold" text-anchor="middle" pointer-events="visible" font-family="Open Sans" fill="#ffffff" transform="matrix(1,0,0,1,225,116.9)"><tspan id="v-55"  dy="0em" x="0">Software System</tspan></text><text  id="v-51" font-size="19" y="0.8em" xml:space="preserve" text-anchor="middle" font-family="Open Sans" fill="#ffffff" transform="matrix(1,0,0,1,225,159.4)"><tspan id="v-56"  dy="0em" x="0">[Software System]</tspan></text><text  id="v-52" font-size="24" y="0.8em" display="none" xml:space="preserve" text-anchor="middle" font-family="Open Sans" fill="#ffffff" transform="matrix(1,0,0,1,225,183.1)"><tspan id="v-57"  dy="0em" x="0" style="fill-opacity: 0; stroke-opacity: 0;">-</tspan></text><text  id="v-53" font-weight="bold" text-anchor="middle" font-family="Open Sans" fill="#ffffff" font-size="24" transform="matrix(1,0,0,1,225,270)" y="0.8em" display="none" xml:space="preserve"><tspan id="v-58"  dy="0em" x="0" style="fill-opacity: 0; stroke-opacity: 0;">-</tspan></text><image  id="v-54"></image></g></g><g id="j_5"   ><path  stroke="#707070" id="v-76" stroke-width="2" stroke-dasharray="30 30" fill="none" d="M 607 593 930 893" style="opacity: 1;"></path><path  fill="black" stroke="black" transform="translate(607,593) scale(1,1) rotate(42.89190673828125)"></path><path  fill="#707070" stroke="#707070" id="v-78" d="M 20 0 L 0 10 L 20 20 z" transform="translate(938.1938005699931,914.3264119919977) scale(1,1) rotate(-137.10809326171875)" style="opacity: 1;"></path><path  id="v-77" fill="none" d="M 607 593 930 893" style=""></path><title ></title><g ><g  id="v-64" label-idx="0" cursor="move" transform="translate(768.5, 743)" style="opacity: 1;"><rect id="v-66" fill="#ffffff" rx="3" ry="3" stroke="#ffffff" stroke-width="20px" pointer-events="none" width="58.542633056640625" height="32.93022918701172" transform="matrix(1,0,0,1,-27.4,-16.5)"></rect><text id="v-65" font-size="24px" y="0.8em" xml:space="preserve" text-anchor="middle" pointer-events="none" fill="#707070" font-family="Open Sans" font-weight="normal" transform="matrix(1,0,0,1,0,-10.1)"><tspan id="v-67"  dy="0em" x="0">Uses</tspan></text></g><g  id="v-68" label-idx="1" cursor="move" transform="translate(768.5, 774.2)" style="opacity: 1;"><rect id="v-70" fill="#ffffff" rx="3" ry="3" pointer-events="none" width="0" height="0" transform="matrix(1,0,0,1,0,0)"></rect><text id="v-69" font-size="19px" y="0.8em" display="none" xml:space="preserve" text-anchor="middle" pointer-events="none" fill="#707070" font-family="Open Sans" font-weight="normal" transform="matrix(1,0,0,1,0,0)"><tspan id="v-71"  dy="0em" x="0" style="fill-opacity: 0; stroke-opacity: 0;">-</tspan></text></g><g  id="v-72" label-idx="2" cursor="move" transform="translate(768.5, 798.2)" style="opacity: 1;"><rect id="v-74" fill="#ffffff" rx="3" ry="3" pointer-events="none"  display="none" width="0" height="0" transform="matrix(1,0,0,1,0,0)"></rect><text id="v-73" font-size="19px" y="0.8em" display="none" xml:space="preserve" text-anchor="middle" pointer-events="none" fill="#707070" font-family="Open Sans" font-weight="normal"  transform="matrix(1,0,0,1,0,0)"><tspan id="v-75"  dy="0em" x="0" style="fill-opacity: 0; stroke-opacity: 0;">-</tspan></text></g></g><g  display="none"></g><g  id="v-80" display="none"><g  id="v-61"><path  end="source" d="M 26 0 L 0 13 L 26 26 z"></path></g><g  id="v-62"><path  end="target" d="M 26 0 L 0 13 L 26 26 z"></path></g></g><g  id="v-79" display="none"><g  id="v-60" transform="translate(636.3084716796875, 620.2215576171875) "><g  event="remove"><circle r="11"></circle><path transform="scale(.8) translate(-16, -16)" d="M24.778,21.419 19.276,15.917 24.777,10.415 21.949,7.585 16.447,13.087 10.945,7.585 8.117,10.415 13.618,15.917 8.116,21.419 10.946,24.248 16.447,18.746 21.948,24.248z"></path><title>Remove link.</title></g><g  event="link:options"><circle r="11" transform="translate(25)"></circle><path fill="white" transform="scale(.55) translate(29, -16)" d="M31.229,17.736c0.064-0.571,0.104-1.148,0.104-1.736s-0.04-1.166-0.104-1.737l-4.377-1.557c-0.218-0.716-0.504-1.401-0.851-2.05l1.993-4.192c-0.725-0.91-1.549-1.734-2.458-2.459l-4.193,1.994c-0.647-0.347-1.334-0.632-2.049-0.849l-1.558-4.378C17.165,0.708,16.588,0.667,16,0.667s-1.166,0.041-1.737,0.105L12.707,5.15c-0.716,0.217-1.401,0.502-2.05,0.849L6.464,4.005C5.554,4.73,4.73,5.554,4.005,6.464l1.994,4.192c-0.347,0.648-0.632,1.334-0.849,2.05l-4.378,1.557C0.708,14.834,0.667,15.412,0.667,16s0.041,1.165,0.105,1.736l4.378,1.558c0.217,0.715,0.502,1.401,0.849,2.049l-1.994,4.193c0.725,0.909,1.549,1.733,2.459,2.458l4.192-1.993c0.648,0.347,1.334,0.633,2.05,0.851l1.557,4.377c0.571,0.064,1.148,0.104,1.737,0.104c0.588,0,1.165-0.04,1.736-0.104l1.558-4.377c0.715-0.218,1.399-0.504,2.049-0.851l4.193,1.993c0.909-0.725,1.733-1.549,2.458-2.458l-1.993-4.193c0.347-0.647,0.633-1.334,0.851-2.049L31.229,17.736zM16,20.871c-2.69,0-4.872-2.182-4.872-4.871c0-2.69,2.182-4.872,4.872-4.872c2.689,0,4.871,2.182,4.871,4.872C20.871,18.689,18.689,20.871,16,20.871z"></path><title>Link options.</title></g></g></g></g><g id="j_6"   ><path  stroke="#707070" id="v-98" stroke-width="2" stroke-dasharray="30 30" fill="none" d="M 1107 607 1107 887" style="opacity: 1;"></path><path  fill="black" stroke="black" transform="translate(1107,607) scale(1,1) rotate(-270)"></path><path  fill="#707070" stroke="#707070" id="v-100" d="M 20 0 L 0 10 L 20 20 z" transform="translate(1097,907) scale(1,1) rotate(-90)" style="opacity: 1;"></path><path  id="v-99" fill="none" d="M 1107 607 1107 887" style=""></path><title ></title><g ><g  id="v-86" label-idx="0" cursor="move" transform="translate(1107, 747)" style="opacity: 1;"><rect id="v-88" fill="#ffffff" rx="3" ry="3" stroke="#ffffff" stroke-width="20px" pointer-events="none" width="113.42635345458984" height="32.93022918701172" transform="matrix(1,0,0,1,-54.9,-16.5)"></rect><text id="v-87" font-size="24px" y="0.8em" xml:space="preserve" text-anchor="middle" pointer-events="none" fill="#707070" font-family="Open Sans" font-weight="normal" transform="matrix(1,0,0,1,0,-10.1)"><tspan id="v-89"  dy="0em" x="0">Develops</tspan></text></g><g  id="v-90" label-idx="1" cursor="move" transform="translate(1107, 778.2)" style="opacity: 1;"><rect id="v-92" fill="#ffffff" rx="3" ry="3" pointer-events="none" width="0" height="0" transform="matrix(1,0,0,1,0,0)"></rect><text id="v-91" font-size="19px" y="0.8em" display="none" xml:space="preserve" text-anchor="middle" pointer-events="none" fill="#707070" font-family="Open Sans" font-weight="normal" transform="matrix(1,0,0,1,0,0)"><tspan id="v-93"  dy="0em" x="0" style="fill-opacity: 0; stroke-opacity: 0;">-</tspan></text></g><g  id="v-94" label-idx="2" cursor="move" transform="translate(1107, 802.2)" style="opacity: 1;"><rect id="v-96" fill="#ffffff" rx="3" ry="3" pointer-events="none"  display="none" width="0" height="0" transform="matrix(1,0,0,1,0,0)"></rect><text id="v-95" font-size="19px" y="0.8em" display="none" xml:space="preserve" text-anchor="middle" pointer-events="none" fill="#707070" font-family="Open Sans" font-weight="normal"  transform="matrix(1,0,0,1,0,0)"><tspan id="v-97"  dy="0em" x="0" style="fill-opacity: 0; stroke-opacity: 0;">-</tspan></text></g></g><g  display="none"></g><g  id="v-102" display="none"><g  id="v-83"><path  end="source" d="M 26 0 L 0 13 L 26 26 z"></path></g><g  id="v-84"><path  end="target" d="M 26 0 L 0 13 L 26 26 z"></path></g></g><g  id="v-101" display="none"><g  id="v-82" transform="translate(1107, 647) "><g  event="remove"><circle r="11"></circle><path transform="scale(.8) translate(-16, -16)" d="M24.778,21.419 19.276,15.917 24.777,10.415 21.949,7.585 16.447,13.087 10.945,7.585 8.117,10.415 13.618,15.917 8.116,21.419 10.946,24.248 16.447,18.746 21.948,24.248z"></path><title>Remove link.</title></g><g  event="link:options"><circle r="11" transform="translate(25)"></circle><path fill="white" transform="scale(.55) translate(29, -16)" d="M31.229,17.736c0.064-0.571,0.104-1.148,0.104-1.736s-0.04-1.166-0.104-1.737l-4.377-1.557c-0.218-0.716-0.504-1.401-0.851-2.05l1.993-4.192c-0.725-0.91-1.549-1.734-2.458-2.459l-4.193,1.994c-0.647-0.347-1.334-0.632-2.049-0.849l-1.558-4.378C17.165,0.708,16.588,0.667,16,0.667s-1.166,0.041-1.737,0.105L12.707,5.15c-0.716,0.217-1.401,0.502-2.05,0.849L6.464,4.005C5.554,4.73,4.73,5.554,4.005,6.464l1.994,4.192c-0.347,0.648-0.632,1.334-0.849,2.05l-4.378,1.557C0.708,14.834,0.667,15.412,0.667,16s0.041,1.165,0.105,1.736l4.378,1.558c0.217,0.715,0.502,1.401,0.849,2.049l-1.994,4.193c0.725,0.909,1.549,1.733,2.459,2.458l4.192-1.993c0.648,0.347,1.334,0.633,2.05,0.851l1.557,4.377c0.571,0.064,1.148,0.104,1.737,0.104c0.588,0,1.165-0.04,1.736-0.104l1.558-4.377c0.715-0.218,1.399-0.504,2.049-0.851l4.193,1.993c0.909-0.725,1.733-1.549,2.458-2.458l-1.993-4.193c0.347-0.647,0.633-1.334,0.851-2.049L31.229,17.736zM16,20.871c-2.69,0-4.872-2.182-4.872-4.871c0-2.69,2.182-4.872,4.872-4.872c2.689,0,4.871,2.182,4.871,4.872C20.871,18.689,18.689,20.871,16,20.871z"></path><title>Link options.</title></g></g></g></g><g id="j_7"   ><path  stroke="#707070" id="v-120" stroke-width="2" stroke-dasharray="30 30" fill="none" d="M 1607 593 1284 893" style="opacity: 1;"></path><path  fill="black" stroke="black" transform="translate(1607,593) scale(1,1) rotate(-222.89190673828125)"></path><path  fill="#707070" stroke="#707070" id="v-122" d="M 20 0 L 0 10 L 20 20 z" transform="translate(1262.193851714513,899.6736301296995) scale(1,1) rotate(-42.89190292358398)" style="opacity: 1;"></path><path  id="v-121" fill="none" d="M 1607 593 1284 893" style=""></path><title ></title><g ><g  id="v-108" label-idx="0" cursor="move" transform="translate(1445.5, 743)" style="opacity: 1;"><rect id="v-110" fill="#ffffff" rx="3" ry="3" stroke="#ffffff" stroke-width="20px" pointer-events="none" width="120.74417877197266" height="32.93022918701172" transform="matrix(1,0,0,1,-58.5,-16.5)"></rect><text id="v-109" font-size="24px" y="0.8em" xml:space="preserve" text-anchor="middle" pointer-events="none" fill="#707070" font-family="Open Sans" font-weight="normal" transform="matrix(1,0,0,1,0,-10.1)"><tspan id="v-111"  dy="0em" x="0">Maintains</tspan></text></g><g  id="v-112" label-idx="1" cursor="move" transform="translate(1445.5, 774.2)" style="opacity: 1;"><rect id="v-114" fill="#ffffff" rx="3" ry="3" pointer-events="none" width="0" height="0" transform="matrix(1,0,0,1,0,0)"></rect><text id="v-113" font-size="19px" y="0.8em" display="none" xml:space="preserve" text-anchor="middle" pointer-events="none" fill="#707070" font-family="Open Sans" font-weight="normal" transform="matrix(1,0,0,1,0,0)"><tspan id="v-115"  dy="0em" x="0" style="fill-opacity: 0; stroke-opacity: 0;">-</tspan></text></g><g  id="v-116" label-idx="2" cursor="move" transform="translate(1445.5, 798.2)" style="opacity: 1;"><rect id="v-118" fill="#ffffff" rx="3" ry="3" pointer-events="none"  display="none" width="0" height="0" transform="matrix(1,0,0,1,0,0)"></rect><text id="v-117" font-size="19px" y="0.8em" display="none" xml:space="preserve" text-anchor="middle" pointer-events="none" fill="#707070" font-family="Open Sans" font-weight="normal"  transform="matrix(1,0,0,1,0,0)"><tspan id="v-119"  dy="0em" x="0" style="fill-opacity: 0; stroke-opacity: 0;">-</tspan></text></g></g><g  display="none"></g><g  id="v-124" display="none"><g  id="v-105"><path  end="source" d="M 26 0 L 0 13 L 26 26 z"></path></g><g  id="v-106"><path  end="target" d="M 26 0 L 0 13 L 26 26 z"></path></g></g><g  id="v-123" display="none"><g  id="v-104" transform="translate(1577.6915283203125, 620.2215576171875) "><g  event="remove"><circle r="11"></circle><path transform="scale(.8) translate(-16, -16)" d="M24.778,21.419 19.276,15.917 24.777,10.415 21.949,7.585 16.447,13.087 10.945,7.585 8.117,10.415 13.618,15.917 8.116,21.419 10.946,24.248 16.447,18.746 21.948,24.248z"></path><title>Remove link.</title></g><g  event="link:options"><circle r="11" transform="translate(25)"></circle><path fill="white" transform="scale(.55) translate(29, -16)" d="M31.229,17.736c0.064-0.571,0.104-1.148,0.104-1.736s-0.04-1.166-0.104-1.737l-4.377-1.557c-0.218-0.716-0.504-1.401-0.851-2.05l1.993-4.192c-0.725-0.91-1.549-1.734-2.458-2.459l-4.193,1.994c-0.647-0.347-1.334-0.632-2.049-0.849l-1.558-4.378C17.165,0.708,16.588,0.667,16,0.667s-1.166,0.041-1.737,0.105L12.707,5.15c-0.716,0.217-1.401,0.502-2.05,0.849L6.464,4.005C5.554,4.73,4.73,5.554,4.005,6.464l1.994,4.192c-0.347,0.648-0.632,1.334-0.849,2.05l-4.378,1.557C0.708,14.834,0.667,15.412,0.667,16s0.041,1.165,0.105,1.736l4.378,1.558c0.217,0.715,0.502,1.401,0.849,2.049l-1.994,4.193c0.725,0.909,1.549,1.733,2.459,2.458l4.192-1.993c0.648,0.347,1.334,0.633,2.05,0.851l1.557,4.377c0.571,0.064,1.148,0.104,1.737,0.104c0.588,0,1.165-0.04,1.736-0.104l1.558-4.377c0.715-0.218,1.399-0.504,2.049-0.851l4.193,1.993c0.909-0.725,1.733-1.549,2.458-2.458l-1.993-4.193c0.347-0.647,0.633-1.334,0.851-2.049L31.229,17.736zM16,20.871c-2.69,0-4.872-2.182-4.872-4.871c0-2.69,2.182-4.872,4.872-4.872c2.689,0,4.871,2.182,4.871,4.872C20.871,18.689,18.689,20.871,16,20.871z"></path><title>Link options.</title></g></g></g></g></g><defs id="v-4"></defs></svg>